# xmcd
#
# Track frame offsets:
#	150
#	14451
#	30287
#	48900
#	63260
#	82462
#	96708
#	109732
#	125807
#	142180
#	157747
#	175330
#	191180
#	209558
#	225358
#	253098
#
# Disc length: 3694 seconds
#
# Revision: 1
# Processed by: cddbd v1.5.2PL0 Copyright (c) Steve Scherf et al.
# Submitted via: audiograbber 1.83.01
#
DISCID=e90e6c10
DTITLE=ASK - ASK 80 D2
DYEAR=1900
DGENRE=
TTITLE0=Nichols, Joe - Tequila Makes Her Clothes Fall Off
TTITLE1=Turner, Josh - Your Man
TTITLE2=McClurkin, Donnie - Didn't You Know How
TTITLE3=Wynonna - My Angel
TTITLE4=Wariner, Steve - Small Town Girl
TTITLE5=Pickler, Kellie - Things That Never Cross A Man's Mind
TTITLE6=Rich, Charlie - Rollin' With The Flow
TTITLE7=Montgomery Gentry - What Do You Think About That
TTITLE8=Atkins, Rodney - If You're Goin Through Hell
TTITLE9=Atkins, Rodney - These Are My People
TTITLE10=Atkins, Rodney - Watching You
TTITLE11=Evans, Sara - As If
TTITLE12=McGraw, Tim - If You're Reading This
TTITLE13=Keith, Toby - Love Me If You Can
TTITLE14=Tomlinson, Trent - Just Might Have Her Radio On
TTITLE15=x - Data Track
EXTD=
EXTT0=
EXTT1=
EXTT2=
EXTT3=
EXTT4=
EXTT5=
EXTT6=
EXTT7=
EXTT8=
EXTT9=
EXTT10=
EXTT11=
EXTT12=
EXTT13=
EXTT14=
EXTT15=
PLAYORDER=
